{"title":"Sarocharu (2012) Telugu Movie HQ PDVD MPEG - Exclusive","uid":7965476,"size":994211969,"categoryP":"video","categoryS":"movies","magnet":"?xt=urn:btih:7875fa4e577d30f0caab833616c3f6a6d02bc173&amp;dn=Sarocharu+%282012%29+Telugu+Movie+HQ+PDVD+MPEG+-+Exclusive&amp;tr=udp%3A%2F%2Ftracker.openbittorrent.com%3A80&amp;tr=udp%3A%2F%2Fopen.demonii.com%3A1337&amp;tr=udp%3A%2F%2Ftracker.coppersurfer.tk%3A6969&amp;tr=udp%3A%2F%2Fexodus.desync.com%3A6969","seeders":1,"leechers":2,"uploader":"tykoon123","files":-1,"time":1356683183,"description":"Poster: &lt;a href=&quot;\nhttp://imgr.us/images/pppoo64rvcvu69mf6b8.jpg&quot; rel=&quot;nofollow&quot; target=&quot;_NEW&quot;&gt;\nhttp://imgr.us/images/pppoo64rvcvu69mf6b8.jpg&lt;/a&gt;\n\nInfo:\n\nFormat : MPEG-PS\nFile size : 948 MiB\nDuration : 2h 4mn\nOverall bit rate mode : Variable\nOverall bit rate : 1 063 Kbps\n\nVideo\nID : 224 (0xE0)\nFormat : MPEG Video\nFormat version : Version 2\nFormat profile : Main@Main\nFormat settings, BVOP : Yes\nFormat settings, Matrix : Default\nFormat settings, GOP : M=3, N=12\nDuration : 2h 4mn\nBit rate mode : Variable\nBit rate : 850 Kbps\nMaximum bit rate : 9 608 Kbps\nWidth : 720 pixels\nHeight : 576 pixels\nDisplay aspect ratio : 16:9\nFrame rate : 24.000 fps\nStandard : PAL\nColor space : YUV\nChroma subsampling : 4:2:0\nBit depth : 8 bits\nScan type : Progressive\nScan order : 2:2:2:2:2:2:2:2:2:2:2:3 Pulldown\nCompression mode : Lossy\nBits/(Pixel*Frame) : 0.085\nStream size : 758 MiB (80%)\n\nAudio\nID : 189 (0xBD)-128 (0x80)\nFormat : AC-3\nFormat/Info : Audio Coding 3\nMode extension : CM (complete main)\nFormat settings, Endianness : Big\nMuxing mode : DVD-Video\nDuration : 2h 4mn\nBit rate mode : Constant\nBit rate : 192 Kbps\nChannel(s) : 2 channels\nChannel positions : Front: L R\nSampling rate : 48.0 KHz\nBit depth : 16 bits\nCompression mode : Lossy\nDelay relative to video : 33ms\nStream size : 171 MiB (18%)\n\nScreens: &lt;a href=&quot;\nhttp://imgr.us/images/20bo2e96sl6iyrfqwe4x.jpg&quot; rel=&quot;nofollow&quot; target=&quot;_NEW&quot;&gt;\nhttp://imgr.us/images/20bo2e96sl6iyrfqwe4x.jpg&lt;/a&gt; &lt;a href=&quot;\nhttp://imgr.us/images/58t0dauanq6ydpr71yuf.jpg&quot; rel=&quot;nofollow&quot; target=&quot;_NEW&quot;&gt;\nhttp://imgr.us/images/58t0dauanq6ydpr71yuf.jpg&lt;/a&gt; &lt;a href=&quot;\nhttp://imgr.us/images/wgka2d9kcdbl84bvwaio.jpg&quot; rel=&quot;nofollow&quot; target=&quot;_NEW&quot;&gt;\nhttp://imgr.us/images/wgka2d9kcdbl84bvwaio.jpg&lt;/a&gt; &lt;a href=&quot;\nhttp://imgr.us/images/9uerdmhi6f572kw9dnl5.jpg&quot; rel=&quot;nofollow&quot; target=&quot;_NEW&quot;&gt;\nhttp://imgr.us/images/9uerdmhi6f572kw9dnl5.jpg&lt;/a&gt; &lt;a href=&quot;\nhttp://imgr.us/images/cg1edc2a9ke8aow84t8x.jpg&quot; rel=&quot;nofollow&quot; target=&quot;_NEW&quot;&gt;\nhttp://imgr.us/images/cg1edc2a9ke8aow84t8x.jpg&lt;/a&gt; &lt;a href=&quot;\nhttp://imgr.us/images/ow97dee9gfq1z7xqqbp.jpg&quot; rel=&quot;nofollow&quot; target=&quot;_NEW&quot;&gt;\nhttp://imgr.us/images/ow97dee9gfq1z7xqqbp.jpg&lt;/a&gt; &lt;a href=&quot;\nhttp://imgr.us/images/kn4moantc4yvz2p0g87.jpg&quot; rel=&quot;nofollow&quot; target=&quot;_NEW&quot;&gt;\nhttp://imgr.us/images/kn4moantc4yvz2p0g87.jpg&lt;/a&gt;\n\n\n\n\n\n","torrent":{"xt":"urn:btih:7875fa4e577d30f0caab833616c3f6a6d02bc173","amp;dn":"Sarocharu+%282012%29+Telugu+Movie+HQ+PDVD+MPEG+-+Exclusive","amp;tr":["udp%3A%2F%2Ftracker.openbittorrent.com%3A80","udp%3A%2F%2Fopen.demonii.com%3A1337","udp%3A%2F%2Ftracker.coppersurfer.tk%3A6969","udp%3A%2F%2Fexodus.desync.com%3A6969"],"infoHash":"7875fa4e577d30f0caab833616c3f6a6d02bc173","infoHashBuffer":{"type":"Buffer","data":[120,117,250,78,87,125,48,240,202,171,131,54,22,195,246,166,208,43,193,115]},"announce":[],"urlList":[]}}